<?xml version="1.0" standalone="no"?>
<!DOCTYPE svg PUBLIC "-//W3C//DTD SVG 20010904//EN"
 "http://www.w3.org/TR/2001/REC-SVG-20010904/DTD/svg10.dtd">
<svg version="1.0" xmlns="http://www.w3.org/2000/svg"
 width="1024.000000pt" height="1024.000000pt" viewBox="0 0 1024.000000 1024.000000"
 preserveAspectRatio="xMidYMid meet">

<g transform="translate(0.000000,1024.000000) scale(0.100000,-0.100000)"
fill="#000000" stroke="none">
<path d="M1435 6045 c-193 -37 -296 -107 -361 -244 -60 -126 -91 -405 -81
-736 9 -280 31 -406 95 -531 43 -84 159 -171 277 -207 132 -40 166 -42 910
-42 798 0 803 0 964 67 155 65 230 165 274 365 19 89 21 129 21 438 1 288 -2
355 -17 439 -50 266 -140 379 -352 442 -55 17 -124 18 -860 20 -634 2 -814 0
-870 -11z m1735 -24 c41 -12 93 -33 115 -46 55 -32 128 -111 160 -175 55 -108
85 -332 85 -630 0 -527 -70 -718 -296 -807 -172 -68 -171 -68 -964 -68 -807 0
-819 1 -978 75 -229 108 -296 310 -287 870 9 538 99 719 389 785 98 22 97 22
916 21 l785 -2 75 -23z"/>
<path d="M2040 5174 l0 -376 33 20 c35 22 112 64 417 232 113 62 206 114 208
115 2 2 -52 35 -120 75 -68 40 -213 126 -324 191 -110 66 -203 119 -207 119
-4 0 -7 -169 -7 -376z m110 306 c50 -34 491 -290 499 -290 5 0 13 -6 19 -12 8
-10 -52 -47 -251 -155 -144 -79 -286 -157 -314 -174 l-53 -31 0 362 0 362 38
-23 c20 -12 48 -30 62 -39z"/>
<path d="M7490 5235 l0 -825 130 0 130 0 0 37 0 37 28 -27 c65 -62 188 -77
278 -32 66 33 90 59 116 131 21 56 23 78 26 409 5 436 -4 490 -90 572 -79 77
-234 84 -312 16 l-26 -23 0 265 0 265 -140 0 -140 0 0 -825z m270 544 l0 -271
35 31 c96 84 264 60 336 -48 52 -79 54 -96 54 -491 0 -406 -5 -445 -66 -514
-50 -57 -108 -79 -194 -74 -83 6 -129 28 -160 80 l-20 33 -3 -52 -3 -53 -120
0 -119 0 0 815 0 815 130 0 130 0 0 -271z"/>
<path d="M7789 5391 l-24 -19 -3 -334 c-3 -360 0 -397 43 -416 65 -30 120 -4
135 63 13 53 13 554 0 630 -6 41 -16 66 -31 78 -28 23 -91 22 -120 -2z m110
-8 c35 -30 43 -112 39 -418 -2 -201 -7 -286 -16 -302 -18 -33 -49 -46 -89 -38
-60 11 -63 30 -63 389 0 308 5 360 33 378 21 14 74 8 96 -9z"/>
<path d="M3727 5983 c-3 -5 64 -251 149 -548 l154 -539 0 -243 0 -243 140 0
140 0 0 258 0 257 101 360 c56 198 122 437 149 530 l47 170 -140 3 c-77 1
-144 -1 -148 -5 -4 -4 -37 -161 -74 -348 -36 -187 -70 -349 -75 -360 -8 -17
-9 -16 -10 10 -1 17 -31 181 -68 365 l-67 335 -147 3 c-80 1 -149 -1 -151 -5z
m307 -95 c54 -288 128 -665 133 -678 3 -8 14 32 24 90 11 58 45 233 77 390
l57 285 133 3 c73 1 132 -1 132 -6 0 -5 -13 -54 -29 -108 -16 -55 -57 -198
-90 -319 -33 -121 -85 -308 -116 -415 l-55 -195 0 -257 0 -258 -130 0 -130 0
0 243 0 243 -150 524 c-82 289 -150 531 -150 538 0 9 34 12 138 12 l138 0 18
-92z"/>
<path d="M5960 5875 l0 -115 120 0 120 0 0 -675 0 -675 140 0 140 0 0 675 0
675 134 0 c79 0 136 4 138 10 2 5 2 57 0 115 l-3 105 -395 0 -394 0 0 -115z
m780 0 l0 -105 -135 0 -135 0 0 -675 0 -675 -130 0 -130 0 0 675 0 675 -120 0
-120 0 0 105 0 105 385 0 385 0 0 -105z"/>
<path d="M4723 5582 c-95 -34 -148 -88 -186 -190 -20 -53 -22 -80 -25 -367 -2
-208 0 -330 8 -370 20 -105 81 -184 175 -227 44 -20 66 -23 175 -23 117 0 129
2 182 28 63 31 112 81 139 142 34 76 41 174 36 464 -6 335 -13 373 -95 463
-20 22 -59 51 -86 65 -69 36 -243 44 -323 15z m309 -20 c53 -23 111 -78 137
-130 40 -81 46 -134 46 -442 0 -250 -3 -305 -17 -358 -27 -96 -66 -145 -145
-184 -65 -32 -72 -33 -183 -33 -98 0 -122 4 -166 23 -63 29 -126 92 -156 157
-22 48 -23 62 -26 340 -4 307 4 404 39 485 35 79 106 137 196 160 62 15 224 5
275 -18z"/>
<path d="M4844 5408 c-56 -14 -59 -34 -59 -413 0 -307 2 -344 17 -367 23 -34
81 -47 117 -27 46 26 52 79 49 431 -3 302 -4 318 -24 344 -24 33 -57 44 -100
32z m96 -43 c12 -25 15 -86 15 -360 0 -239 -3 -338 -12 -358 -25 -55 -97 -61
-130 -10 -16 24 -18 61 -21 333 -5 402 2 433 93 427 33 -2 42 -7 55 -32z"/>
<path d="M8547 5586 c-65 -18 -125 -61 -164 -120 -56 -82 -58 -99 -58 -471 l0
-340 33 -69 c18 -39 50 -86 72 -107 75 -71 236 -100 358 -64 120 36 201 147
210 290 l5 76 -129 -3 -129 -3 -5 -68 c-4 -57 -9 -72 -29 -89 -17 -13 -33 -17
-50 -13 -52 13 -56 25 -59 180 l-3 145 200 0 201 0 0 183 c0 206 -14 295 -56
362 -33 51 -103 101 -164 114 -61 14 -175 12 -233 -3z m273 -23 c61 -27 116
-86 142 -153 19 -48 22 -81 26 -262 l4 -208 -201 0 -201 0 0 -146 0 -146 29
-29 c34 -34 69 -37 102 -10 19 16 24 30 27 90 l4 71 119 0 119 0 0 -43 c0 -55
-25 -139 -55 -187 -59 -93 -164 -137 -301 -127 -136 10 -229 76 -276 196 -20
52 -22 77 -26 346 -5 377 7 454 92 543 62 67 139 93 261 89 64 -2 103 -9 135
-24z"/>
<path d="M8606 5388 c-13 -18 -16 -51 -16 -155 l0 -133 81 0 81 0 -4 134 c-3
115 -6 137 -22 155 -27 30 -99 29 -120 -1z m100 4 c26 -17 34 -56 34 -166 l0
-116 -70 0 -70 0 0 123 c0 142 10 167 63 167 18 0 37 -4 43 -8z"/>
<path d="M5352 5073 c4 -568 2 -556 65 -615 79 -75 245 -80 326 -10 9 8 17 19
17 25 0 5 -16 -5 -35 -21 -40 -36 -83 -46 -163 -40 -114 9 -174 63 -192 174
-6 32 -10 267 -10 521 l0 462 125 3 124 3 3 -458 3 -459 28 -24 c15 -13 39
-24 53 -24 37 0 81 26 88 52 3 13 6 225 6 472 0 404 2 448 16 442 9 -3 67 -6
130 -6 l114 0 0 -575 0 -575 -130 0 -130 0 0 48 c0 28 -4 42 -9 34 -4 -7 -5
-30 -2 -50 l6 -37 138 -3 137 -3 0 591 0 590 -140 0 -140 0 0 -452 c0 -492 -1
-495 -55 -511 -47 -13 -82 5 -94 50 -7 24 -11 200 -11 476 l0 437 -136 0 -135
0 3 -517z"/>
<path d="M6654 5576 c-3 -7 -4 -240 -2 -517 l3 -504 24 -48 c34 -71 85 -101
177 -105 85 -5 133 9 180 50 l34 30 0 -36 0 -36 145 0 145 0 0 574 c0 316 -3
581 -6 590 -5 14 -28 16 -145 16 l-139 0 0 -452 c0 -344 -3 -459 -13 -478 -10
-19 -21 -26 -53 -28 -26 -2 -45 2 -53 11 -22 27 -28 150 -29 542 0 215 -1 393
-1 398 -1 4 -60 7 -131 7 -102 0 -132 -3 -136 -14z m258 -449 c2 -308 7 -450
15 -468 13 -30 57 -49 97 -42 56 11 56 7 56 503 l0 455 132 -3 133 -3 0 -575
0 -574 -132 0 -133 0 0 44 0 45 -41 -37 c-51 -47 -88 -60 -164 -61 -67 -1
-127 22 -161 60 -46 52 -48 66 -52 587 -2 272 -1 499 1 505 3 9 40 11 125 9
l121 -3 3 -442z"/>
</g>
</svg>
