<?xml version="1.0" standalone="no"?>
<!DOCTYPE svg PUBLIC "-//W3C//DTD SVG 20010904//EN"
 "http://www.w3.org/TR/2001/REC-SVG-20010904/DTD/svg10.dtd">
<svg version="1.0" xmlns="http://www.w3.org/2000/svg"
 width="1024.000000pt" height="1024.000000pt" viewBox="0 0 1024.000000 1024.000000"
 preserveAspectRatio="xMidYMid meet">
<metadata>
Created by potrace 1.16, written by Peter Selinger 2001-2019
</metadata>
<g transform="translate(0.000000,1024.000000) scale(0.100000,-0.100000)"
fill="#000000" stroke="none">
<path d="M1425 6045 c-235 -43 -350 -157 -399 -396 -34 -169 -47 -534 -26
-769 27 -294 102 -432 284 -520 155 -74 163 -75 1001 -75 l740 0 95 27 c249
68 340 161 393 403 20 93 21 127 21 455 0 332 -1 362 -22 460 -55 252 -168
372 -391 414 -71 14 -191 16 -855 15 -587 -1 -788 -4 -841 -14z m1745 -24 c41
-12 93 -33 115 -46 55 -32 128 -111 160 -175 55 -108 85 -332 85 -630 0 -527
-70 -718 -296 -807 -172 -68 -171 -68 -964 -68 -807 0 -819 1 -978 75 -229
108 -296 310 -287 870 9 538 99 719 389 785 98 22 97 22 916 21 l785 -2 75
-23z"/>
<path d="M2040 5174 l0 -376 23 14 c20 14 276 156 532 295 55 30 101 56 103
58 2 2 -52 35 -120 75 -68 40 -213 126 -324 191 -110 66 -203 119 -207 119 -4
0 -7 -169 -7 -376z m488 82 l152 -89 -247 -134 c-137 -74 -263 -143 -280 -154
-18 -10 -49 -28 -68 -40 l-35 -21 0 361 0 360 163 -98 c89 -53 231 -137 315
-185z"/>
<path d="M7490 5235 l0 -825 130 0 130 0 0 37 0 37 33 -32 c40 -39 81 -52 163
-52 112 0 186 50 225 152 24 62 24 67 24 453 0 389 0 390 -24 442 -28 64 -95
128 -147 142 -84 23 -188 8 -236 -36 -17 -15 -18 -5 -18 245 l0 262 -140 0
-140 0 0 -825z m270 544 l0 -271 35 31 c96 84 264 60 336 -48 52 -79 54 -96
54 -491 0 -406 -5 -445 -66 -514 -50 -57 -108 -79 -194 -74 -83 6 -129 28
-160 80 l-20 33 -3 -52 -3 -53 -120 0 -119 0 0 815 0 815 130 0 130 0 0 -271z"/>
<path d="M7789 5391 l-24 -19 -3 -334 c-3 -360 0 -397 43 -416 65 -30 120 -4
135 63 13 53 13 554 0 630 -6 41 -16 66 -31 78 -28 23 -91 22 -120 -2z m112
-10 l24 -19 3 -346 3 -346 -25 -25 c-27 -27 -50 -31 -90 -15 -42 16 -47 60
-44 411 l3 321 24 19 c30 24 72 24 102 0z"/>
<path d="M3726 5981 c-4 -5 10 -62 29 -128 19 -65 88 -300 152 -523 l117 -405
4 -257 3 -258 140 0 139 0 0 253 0 254 39 139 c123 445 253 907 258 920 4 12
-18 14 -140 14 -80 0 -148 -4 -151 -9 -3 -4 -35 -161 -72 -347 -71 -363 -75
-383 -81 -344 -2 14 -24 124 -48 245 -24 121 -53 273 -65 338 l-22 117 -148 0
c-82 0 -151 -4 -154 -9z m308 -93 c54 -288 128 -665 133 -678 3 -8 14 32 24
90 11 58 45 233 77 390 l57 285 133 3 c73 1 132 -1 132 -6 0 -5 -13 -54 -29
-108 -16 -55 -57 -198 -90 -319 -33 -121 -85 -308 -116 -415 l-55 -195 0 -257
0 -258 -130 0 -130 0 0 243 0 243 -150 524 c-82 289 -150 531 -150 538 0 9 34
12 138 12 l138 0 18 -92z"/>
<path d="M5960 5875 l0 -115 120 0 120 0 0 -675 0 -675 140 0 140 0 0 675 0
675 140 0 140 0 0 33 c0 17 -3 69 -7 115 l-6 82 -393 0 -394 0 0 -115z m780 0
l0 -105 -135 0 -135 0 0 -675 0 -675 -130 0 -130 0 0 675 0 675 -120 0 -120 0
0 105 0 105 385 0 385 0 0 -105z"/>
<path d="M4723 5582 c-107 -38 -171 -114 -198 -237 -14 -59 -16 -126 -13 -391
3 -302 4 -321 25 -366 30 -66 95 -132 156 -159 46 -21 67 -24 182 -24 117 0
134 2 175 24 94 49 141 114 166 230 17 80 19 551 3 651 -20 127 -78 213 -175
261 -67 33 -243 39 -321 11z m309 -20 c53 -23 111 -78 137 -130 40 -81 46
-134 46 -442 0 -250 -3 -305 -17 -358 -27 -96 -66 -145 -145 -184 -65 -32 -72
-33 -183 -33 -98 0 -122 4 -166 23 -63 29 -126 92 -156 157 -22 48 -23 62 -26
340 -4 307 4 404 39 485 35 79 106 137 196 160 62 15 224 5 275 -18z"/>
<path d="M4844 5408 c-56 -14 -59 -34 -59 -413 0 -307 2 -344 17 -367 23 -34
81 -47 117 -27 46 26 52 79 49 431 -3 302 -4 318 -24 344 -24 33 -57 44 -100
32z m73 -16 c6 -4 17 -20 22 -35 14 -37 15 -676 1 -711 -20 -54 -94 -59 -127
-9 -16 24 -18 59 -18 353 0 179 3 337 8 352 4 15 14 34 23 42 16 17 70 21 91
8z"/>
<path d="M8542 5586 c-116 -38 -184 -119 -212 -251 -17 -78 -17 -566 0 -663
22 -129 102 -224 217 -258 84 -25 222 -16 288 18 100 52 156 145 163 271 l5
78 -129 -3 -129 -3 -5 -60 c-9 -98 -41 -131 -98 -101 -37 19 -42 44 -42 197
l0 119 201 0 201 0 -4 218 c-4 195 -6 223 -26 273 -26 66 -80 124 -142 152
-58 27 -223 34 -288 13z m278 -23 c61 -27 116 -86 142 -153 19 -48 22 -81 26
-262 l4 -208 -201 0 -201 0 0 -146 0 -146 29 -29 c34 -34 69 -37 102 -10 19
16 24 30 27 90 l4 71 119 0 119 0 0 -43 c0 -55 -25 -139 -55 -187 -59 -93
-164 -137 -301 -127 -136 10 -229 76 -276 196 -20 52 -22 77 -26 346 -5 377 7
454 92 543 62 67 139 93 261 89 64 -2 103 -9 135 -24z"/>
<path d="M8606 5388 c-13 -18 -16 -51 -16 -155 l0 -133 81 0 81 0 -4 134 c-3
115 -6 137 -22 155 -27 30 -99 29 -120 -1z m110 -9 c16 -18 20 -40 22 -143 l4
-121 -71 3 -71 4 0 117 c0 89 4 122 16 139 20 29 74 30 100 1z"/>
<path d="M5352 5073 c3 -567 2 -555 64 -616 80 -80 242 -85 325 -10 l39 35 0
-36 0 -36 140 0 140 0 0 590 0 590 -140 0 -139 0 -3 -463 c-3 -438 -4 -464
-22 -482 -26 -26 -81 -25 -109 3 l-22 23 -3 459 -3 460 -135 0 -135 0 3 -517z
m291 -439 c15 -13 39 -24 53 -24 37 0 81 26 88 52 3 13 6 225 6 472 0 404 2
448 16 442 9 -3 67 -6 130 -6 l114 0 0 -575 0 -575 -130 0 -130 0 0 45 0 44
-42 -39 c-54 -50 -93 -63 -176 -58 -123 7 -183 60 -202 174 -6 32 -10 267 -10
521 l0 462 123 3 122 3 5 -458 5 -459 28 -24z"/>
<path d="M6654 5577 c-3 -8 -4 -241 -2 -518 3 -488 4 -505 24 -549 37 -79 98
-113 204 -113 71 0 115 17 163 61 l27 26 0 -37 0 -37 145 0 145 0 -2 588 -3
587 -142 3 -142 3 -3 -467 c-3 -448 -4 -466 -22 -480 -31 -22 -83 -18 -98 9
-10 17 -14 132 -18 477 l-5 455 -133 3 c-105 2 -133 0 -138 -11z m258 -450 c2
-308 7 -450 15 -468 13 -30 57 -49 97 -42 56 11 56 7 56 503 l0 455 132 -3
133 -3 0 -575 0 -574 -132 0 -133 0 0 44 0 45 -41 -37 c-51 -47 -88 -60 -164
-61 -67 -1 -127 22 -161 60 -46 52 -48 66 -52 587 -2 272 -1 499 1 505 3 9 40
11 125 9 l121 -3 3 -442z"/>
</g>
</svg>
